<svg width="50" height="50" viewBox="0 0 50 50" fill="none" xmlns="http://www.w3.org/2000/svg">
<circle cx="25" cy="25" r="25" fill="#121212"/>
<path d="M13.666 9.33337H17.4383C17.4383 20.3331 17.4383 26.5003 17.4383 37.5H13.666V9.33337Z" fill="#FF0000"/>
<rect x="34.6836" y="15.8335" width="3.7723" height="24.6667" rx="1.88615" fill="#FF0000"/>
<rect x="38.3633" y="37.5176" width="2.98311" height="12.0272" rx="1.49156" transform="rotate(90.1566 38.3633 37.5176)" fill="#FF0000"/>
<rect width="4.05524" height="24.7032" transform="matrix(-0.00405908 -0.999992 0.999994 -0.00349424 13.6836 28.475)" fill="#FF0000"/>
<path d="M20.8361 37.474C22.7578 37.4706 24.6603 37.1036 26.4348 36.394C28.2093 35.6844 29.8212 34.6461 31.1783 33.3383C32.5354 32.0306 33.6112 30.479 34.3443 28.7722C35.0774 27.0654 35.4534 25.2367 35.4509 23.3907C35.4483 21.5447 35.0673 19.7174 34.3296 18.0132C33.5918 16.309 32.5117 14.7612 31.1511 13.4583C29.7904 12.1554 28.1757 11.1228 26.3993 10.4195C24.6228 9.71619 22.7194 9.35597 20.7976 9.35938L20.8168 23.4167L20.8361 37.474Z" fill="#730000"/>
</svg>
